<svg xmlns="http://www.w3.org/2000/svg" viewBox="0 0 128 128" role="img" aria-label="React Shooter Game Engine">
  <defs>
    <linearGradient id="logo-bg" x1="16" y1="8" x2="112" y2="120" gradientUnits="userSpaceOnUse">
      <stop offset="0%" stop-color="#1a2330"/>
      <stop offset="100%" stop-color="#0a0e12"/>
    </linearGradient>
    <linearGradient id="logo-ring" x1="32" y1="32" x2="96" y2="96" gradientUnits="userSpaceOnUse">
      <stop offset="0%" stop-color="#84a9ff"/>
      <stop offset="100%" stop-color="#2f6fed"/>
    </linearGradient>
  </defs>

  <rect width="128" height="128" rx="28" fill="url(#logo-bg)"/>
  <rect x="8" y="8" width="112" height="112" rx="22" fill="none" stroke="#2f6fed" stroke-opacity="0.18" stroke-width="1.5"/>

  <g stroke="#2f6fed" stroke-opacity="0.14" stroke-width="1">
    <path d="M32 48h64M32 64h64M32 80h64"/>
    <path d="M48 32v64M64 32v64M80 32v64"/>
  </g>

  <circle cx="64" cy="64" r="34" fill="none" stroke="url(#logo-ring)" stroke-width="3.5"/>
  <path d="M64 22v16M64 90v16M22 64h16M90 64h16" stroke="#2f6fed" stroke-width="3.5" stroke-linecap="round"/>
  <circle cx="64" cy="64" r="6" fill="#ff6b4a"/>

  <path d="M30 94 L54 70" stroke="#ff6b4a" stroke-width="4" stroke-linecap="round"/>
  <circle cx="30" cy="94" r="5" fill="#ff6b4a"/>
  <circle cx="54" cy="70" r="3" fill="#ffb199" fill-opacity="0.9"/>
</svg>
